<?xml version="1.0" encoding="utf-8"?>
<!-- Generator: Adobe Illustrator 16.0.0, SVG Export Plug-In . SVG Version: 6.00 Build 0)  -->
<!DOCTYPE svg PUBLIC "-//W3C//DTD SVG 1.1//EN" "http://www.w3.org/Graphics/SVG/1.1/DTD/svg11.dtd">
<svg version="1.1" xmlns="http://www.w3.org/2000/svg" xmlns:xlink="http://www.w3.org/1999/xlink" x="0px" y="0px" width="512px"
	 height="330px" viewBox="0 90.5 512 330" enable-background="new 0 90.5 512 330" xml:space="preserve">
<g id="Nube">
	<g>
		<path fill="none" stroke="#000000" stroke-width="9" stroke-miterlimit="10" d="M318.268,100.333
			c-46.641,0-86.804,25.965-108.146,63.909c-5.321-0.943-10.764-1.642-16.388-1.642c-40.802,0-75.128,26.331-87.836,62.815
			c-1.854-0.122-3.648-0.548-5.564-0.548c-51.564,0-93.4,41.835-93.4,93.401c0,51.564,41.836,93.4,93.4,93.4h311.335
			c51.564,0,93.398-41.836,93.398-93.4c0-40.803-26.328-75.159-62.813-87.868c0.061-1.885,0.547-3.647,0.547-5.534
			C442.801,156.094,387.04,100.333,318.268,100.333L318.268,100.333z"/>
	</g>
</g>
<g id="Texto_TOW_Peb">
</g>
<g id="Texto_Programming">
</g>
</svg>
